<?xml version="1.0" encoding="utf-8"?>
<!-- Generator: Adobe Illustrator 24.1.1, SVG Export Plug-In . SVG Version: 6.00 Build 0)  -->
<svg version="1.1" id="Layer_1" xmlns="http://www.w3.org/2000/svg" xmlns:xlink="http://www.w3.org/1999/xlink" x="0px" y="0px"
	 viewBox="0 0 477 171.9" style="enable-background:new 0 0 477 171.9;" xml:space="preserve">
<style type="text/css">
	.st0{fill:#034694;}
	.st1{fill:#F7941D;}
	.st2{fill:none;stroke:#F7941D;stroke-width:1.11;stroke-linecap:round;stroke-linejoin:round;}
</style>
<path class="st0" d="M88.7,171.9h193.6L168.8,13.7c-14.8-17.3-37.4-17.8-53,0L0,171.9h61.9l76.2-107c1.2-1.7,3.5-2.1,5.2-0.9
	c0.3,0.2,0.6,0.5,0.9,0.9l45.8,65.3h-72.7L88.7,171.9z"/>
<path class="st1" d="M413.1,0.5H189.6l29.8,43.4H406c11.6,0,20.9,9.4,20.9,20.9c0,11.6-9.4,20.9-20.9,20.9H248.2L304,167v-39.8
	h109.1c35-0.4,63-29.2,62.6-64.2C475.3,28.7,447.5,1,413.1,0.5z"/>
<path class="st2" d="M413.1,0.5H189.6l29.8,43.4H406c11.6,0,20.9,9.4,20.9,20.9c0,11.6-9.4,20.9-20.9,20.9H248.2L304,167v-39.8
	h109.1c35-0.4,63-29.2,62.6-64.2C475.3,28.7,447.5,1,413.1,0.5z"/>
</svg>
