<svg id="katman_1" data-name="katman 1" xmlns="http://www.w3.org/2000/svg" viewBox="0 0 652 316"><defs><style>.cls-1{fill:#727070;}.cls-2{fill:#004a97;}.cls-3{fill:#004a96;}</style></defs><path class="cls-1" d="M352.8,260a27.8,27.8,0,0,0-10.4-12.5c-13.5-8.6-34.1-9.2-48.1-1.4-7.6,3.9-12.6,11.6-14.2,19.4-2.8,13-2.1,28.4,7.9,38.1,11.7,10.2,28.6,12.5,43.7,8.3a19.71,19.71,0,0,0,4.6-1.5l.4-.2a30.06,30.06,0,0,0,12.5-9.4C357,289.5,357.5,272.6,352.8,260Zm-24.6,29.1a7.8,7.8,0,0,1-4.8,5.9,16.53,16.53,0,0,1-13.6-.8c-3.2-2.3-3.6-6-4.1-9.6-.3-7.1-.8-14.5,1.2-21,1.5-4,5.8-5,9.7-5.3,4.1,0,8,.6,10.5,3.9,1.6,2.3,1.5,5.4,1.8,8.2C328.8,276.2,329.3,283.2,328.2,289.1Z" transform="translate(-95 -139.8)"/><path class="cls-1" d="M204.9,295.5c-3.4-.2-7.3.1-10.6-.3l.1-35.9.2-.3,10.3-.1c.1-5.8.2-12.1-.1-17.4l-39.2-.1-6.5.1c-.1,5.4-.1,11.8,0,17.3,3.5.1,6.9,0,10.3.3v34.8l-.1,1.4-10.3.2c-.2,5.7-.2,11.2,0,16.9h45.9Z" transform="translate(-95 -139.8)"/><path class="cls-1" d="M320.4,320a82.76,82.76,0,0,1-15.9,17c-.2.3-.8.2-1-.1-2.6-1.6-5.4-3-7.9-4.6a89.61,89.61,0,0,0,9.1-12.4h-3.2a76.59,76.59,0,0,1-8.7,11.2,112.27,112.27,0,0,0-13.4-4.7l-.5-.4c.7-2.1,2.1-4,2.5-6.1h-2.8l-2.8,5.5a152.71,152.71,0,0,0-19.2-2.5c-.3-.9.1-2.2-.3-3.1h-2.7c-.2,1.2.3,2.2-.3,3.2a112.48,112.48,0,0,0-18.7,2.3l-2.8-5.4a9.06,9.06,0,0,0-2.9.1l2.6,6-.3.3a123.1,123.1,0,0,0-13.7,4.8l-.4-.2a84.39,84.39,0,0,1-8-10.1c-.5-1.7-2.6-.7-3.7-.9a84.45,84.45,0,0,0,9.2,12.6c-2.8,1.6-5.6,3.5-8.5,4.8A72.86,72.86,0,0,1,189.7,320a12.15,12.15,0,0,0-3.3,0,81.47,81.47,0,0,0,31.3,27.9.1.1,0,0,1,.1-.1c.1,0,.3.2.1.3a85,85,0,0,0,26.2,8.1c32,4.2,62.5-9.4,80.2-36.2A25.24,25.24,0,0,0,320.4,320ZM277,329.2l.3-.2a59.56,59.56,0,0,1,12.7,4.4,59.73,59.73,0,0,1-11.6,9.8c-2.4,1.4-4.8,3-7.3,4.2l-4.5-1.9.3-.7A109.12,109.12,0,0,0,277,329.2Zm-20.5-3.1a82.83,82.83,0,0,1,17.4,2l.1.3a114.91,114.91,0,0,1-10.5,15.9c-1.8.2-3.4-.5-5.2-.6l-1.8-.2C256.3,337.5,256.2,332.2,256.5,326.1ZM236.4,328a92.1,92.1,0,0,1,16.9-1.8l.1,17.3c-2.2.5-4.6.5-6.7,1a88.87,88.87,0,0,1-10.8-16.1Zm-16.7,5.5a64,64,0,0,1,12.7-4.5l.4.1a180,180,0,0,0,10.5,16.3c-1.5.8-3.2,1.3-4.7,2.1a72.34,72.34,0,0,1-19-13.7v-.3ZM233.1,351a73.77,73.77,0,0,1-24.4-11.5v-.3a58.12,58.12,0,0,1,7.7-4.3,109.86,109.86,0,0,0,18.7,14.4A5.51,5.51,0,0,1,233.1,351Zm38.6,1.3a78.31,78.31,0,0,1-34.4-.2c-.2-.5.5-.6.8-.9,9.7-6.2,24.8-6.2,34.3.5C272.8,352.3,271.9,352.1,271.7,352.3Zm10-2.8-4.9,1.5a11.87,11.87,0,0,1-2.3-1.6l.2-.3a92.38,92.38,0,0,0,18.4-14.2,41.58,41.58,0,0,1,8,4.4C295.4,343.9,288.6,346.9,281.7,349.5Z" transform="translate(-95 -139.8)"/><path class="cls-1" d="M189,233.6a88.19,88.19,0,0,1,8.4-10.1,57.06,57.06,0,0,1,8.1-6.9c2.7,1.7,5.7,3.2,8.3,4.8-3.2,4-6.6,8-9,12.3a6.47,6.47,0,0,0,3.1,0,75.64,75.64,0,0,1,8.7-10.9c4.5,1.6,8.8,3.4,13.4,4.6l.4.4-2.6,5.9a10.05,10.05,0,0,0,3,0c.9-1.7,1.7-3.7,2.7-5.4a105.1,105.1,0,0,0,18.9,2.2c.8.7.2,2.3.5,3.2h2.8c.3-1-.1-2.1.3-3.1a92.62,92.62,0,0,0,18.2-2.4l.5.1,2.8,5.3c.9,0,2.2.2,2.9-.2l-2.6-5.9.2-.2a107.49,107.49,0,0,0,13.8-4.9,122.47,122.47,0,0,1,9,11.2,10.11,10.11,0,0,0,3.1-.2,40.92,40.92,0,0,0-4.5-6.4,46.25,46.25,0,0,0-4.6-5.5V221l7.3-4.2,1.1-.4a73.92,73.92,0,0,1,16.4,17.1c1.3,0,2.3.4,3.3-.1a82.34,82.34,0,0,0-61.8-36.2l-.1.2-.2-.2a48,48,0,0,0-9.3-.1,26.34,26.34,0,0,0-3.9.1,81.54,81.54,0,0,0-62.4,36.5C186.7,233.6,187.9,234,189,233.6Zm43.2-9-.4.1a86.1,86.1,0,0,1-12.4-4.2l.2-.6A84,84,0,0,1,238,206.5c1.6.6,3.1,1.1,4.7,1.8l-.3.8A118.28,118.28,0,0,0,232.2,224.6Zm20.7,2.7c-2.9.4-5.5-.1-8.4-.3a61.21,61.21,0,0,1-9.2-1.6,93.62,93.62,0,0,1,10.8-16l6.7.9C253.1,215.6,252.9,221.7,252.9,227.3Zm3.2.1c-.2-5.4-.1-11.5,0-17.1l6.5-.9c4.1,5.1,8,10.3,10.7,15.9A71,71,0,0,1,256.1,227.4Zm33.2-7.1a67.8,67.8,0,0,1-12.7,4.3c-3.2-5.4-6.8-10.8-10.7-16.1,1.5-.8,3.2-1.4,4.8-2.2A73.7,73.7,0,0,1,289.5,220ZM276,202.8a74.25,74.25,0,0,1,24.5,11.5l-.2.4-7.2,4h-.5a92.46,92.46,0,0,0-18.5-14.1C274.2,203.8,275.3,203.3,276,202.8Zm-4.2-1v.2c-9.1,6.5-23.7,7.2-33.3,1.1-.5-.4-1.6-.6-1.7-1.3C247.9,199.2,260.9,199,271.8,201.8Zm-63.5,12.6a73,73,0,0,1,21.6-10.8c.3-.3.5-.6.9-.6v.2c.8.2,1.5-.7,2.2-.1s1.4.9,1.9,1.4a104.35,104.35,0,0,0-18.6,14.4,32,32,0,0,1-7.9-4.3v-.2Z" transform="translate(-95 -139.8)"/><path class="cls-1" d="M253,296.3c-9.8,2.7-20.4.6-27.5-6.7-.8-1-1.4-2.2-2.2-3.3l-14,.1c-.2,8.3-.3,17.8,0,26l15.6-.1.2-4.9c1.8.8,3.5,1.8,5.3,2.8,10.8,4.5,24.8,5.5,35.5,0a21,21,0,0,0,10.8-21.5c-1.1-8.7-9.5-16.6-17.9-18.7l-25.2-7.3-1.9-.9a3,3,0,0,1-1.2-2.8c2-3.4,6.6-2.3,10-2.3,7.3,1,14.8,3.5,19.1,10.1,4.6,0,9.9.1,14.9-.1.2-8.4-.1-15.7-.2-24.2-4.7-.1-10.4-.1-15.1.1-.2,1.2.2,2.9-.3,4.2l-4.8-2.6c-11.5-4.8-27.5-5.3-37.9,2.2-6.8,4.9-8.8,13.7-7.1,21.5,1.4,7.4,8.4,12.8,15.2,15.3,9.3,3.3,18.9,5.6,28.3,8.8.9.4,2.2,1.3,2,2.5C254.7,295.3,253.7,295.9,253,296.3Z" transform="translate(-95 -139.8)"/><path class="cls-2" d="M211.5,390.1a17.22,17.22,0,0,0,3.1-.1,12,12,0,0,0,6.1-2.3,11,11,0,0,0,3.8-6.6h-.1a8.2,8.2,0,0,1-6.5,2.7c-5.2,0-9-3.8-9-9.3a10.53,10.53,0,0,1,10.8-10.6c6.9,0,10.6,5.5,10.6,12.7,0,6.4-2.1,10.9-5.2,13.9a16.75,16.75,0,0,1-10.2,4.1c-1.3.1-2.6.1-3.4.1v-4.6Zm3-16c0,3.1,1.8,5.5,4.9,5.5a5.49,5.49,0,0,0,4.8-2.5,3.23,3.23,0,0,0,.3-1.6c0-4-1.5-7.5-5.1-7.5C216.5,368,214.5,370.5,214.5,374.1Z" transform="translate(-95 -139.8)"/><path class="cls-2" d="M254.9,379c0,9.6-3.8,15.6-10.9,15.6-6.9,0-10.6-6.2-10.6-15.3,0-9.3,3.9-15.5,10.9-15.5C251.6,363.8,254.9,370.2,254.9,379Zm-15.8.3c0,7.3,2,11,5.1,11,3.3,0,5-4,5-11.2,0-6.9-1.7-11-5-11C241.2,368.1,239.1,371.8,239.1,379.3Z" transform="translate(-95 -139.8)"/><path class="cls-2" d="M279.5,379c0,9.6-3.8,15.6-10.9,15.6-6.9,0-10.6-6.2-10.6-15.3,0-9.3,3.9-15.5,10.9-15.5C276.2,363.8,279.5,370.2,279.5,379Zm-15.8.3c0,7.3,2,11,5.1,11,3.3,0,5-4,5-11.2,0-6.9-1.7-11-5-11C265.8,368.1,263.7,371.8,263.7,379.3Z" transform="translate(-95 -139.8)"/><path class="cls-2" d="M291.9,369.4h0l-5.6,2.8-1-4.3,7.3-3.6h4.7v29.8h-5.5V369.4Z" transform="translate(-95 -139.8)"/><path class="cls-1" d="M253,416.8A119,119,0,0,1,134.1,297.9c0-65.6,53.3-119,118.9-119A119,119,0,0,1,371.9,297.8C371.9,363.4,318.6,416.8,253,416.8Zm0-234.3A115.4,115.4,0,0,0,137.7,297.8c0,63.6,51.7,115.4,115.3,115.4A115.4,115.4,0,0,0,368.3,297.9C368.3,234.3,316.6,182.5,253,182.5Z" transform="translate(-95 -139.8)"/><path class="cls-3" d="M253,455.8c-87.1,0-158-70.9-158-158s70.9-158,158-158,158,70.9,158,158S340.1,455.8,253,455.8Zm0-312.2c-85.1,0-154.3,69.2-154.3,154.3S167.9,452.1,253,452.1s154.3-69.2,154.3-154.3S338.1,143.6,253,143.6Z" transform="translate(-95 -139.8)"/><path class="cls-2" d="M142.2,229.5l2.4-.8.8,2.5-2.6.8a9.49,9.49,0,0,1-1.2,4.5c-1.9,3.3-4.6,4.6-8.3,4a10.92,10.92,0,0,1-3.6-1.2,9.52,9.52,0,0,1-4.7-5.6,7.32,7.32,0,0,1,.9-6c1.9-3.3,4.6-4.7,8.3-4.1a9.17,9.17,0,0,1,3.6,1.3A9.34,9.34,0,0,1,142.2,229.5Zm-2.6,3.5-2.3.7-.8-2.5,2.6-.8a7.1,7.1,0,0,0-2.8-2.6,6.85,6.85,0,0,0-4.2-1,4.43,4.43,0,0,0-3.4,2.4,4.31,4.31,0,0,0-.3,4.1,6.21,6.21,0,0,0,3,3,6.85,6.85,0,0,0,4.2,1,4.43,4.43,0,0,0,3.4-2.4A6,6,0,0,0,139.6,233Z" transform="translate(-95 -139.8)"/><path class="cls-2" d="M142.8,211l10.3,7.6-1.9,2.6-1.3-.9a4.24,4.24,0,0,1-.2,3.8,5.66,5.66,0,0,1-2.4,2.1c-1.3.6-2.6.3-4.1-.8l-7.1-5.3,1.9-2.6,6.4,4.7a4.65,4.65,0,0,0,1.6.8c.7.1,1.3-.3,1.9-1.3.9-1.4.8-2.4-.3-3.2l-6.6-4.9Z" transform="translate(-95 -139.8)"/><path class="cls-2" d="M162.1,208.4l-2.3,2.6a1.73,1.73,0,0,1-1.2-.6,6,6,0,0,1-1.3,4.2c-1.8,2-3.7,2.1-5.5.2a3.9,3.9,0,0,1-.5-5.4,11,11,0,0,0,1.8-2.8,1.33,1.33,0,0,0-.5-1.6,1.19,1.19,0,0,0-1.3-.1,4.36,4.36,0,0,0-1.1.9c-.9,1.1-.9,2.1.1,3l-2.1,2.3q-3.3-3,.3-6.9t6.6-1.2l5.1,4.7a2.2,2.2,0,0,0,1.6.5Zm-6.5-.7-.5-.5a3.4,3.4,0,0,1-.7,1.5c-.3.4-.5.7-.8,1.1a2.2,2.2,0,0,0-.4,1.3,1.39,1.39,0,0,0,.5,1c.4.3.7.5,1.1.4a1.38,1.38,0,0,0,1.1-.6c.1-.2.3-.3.4-.5C157.1,210.2,156.9,208.9,155.6,207.7Z" transform="translate(-95 -139.8)"/><path class="cls-2" d="M151.8,194.6l2.4-2.2L166,204.9l-2.4,2.2Z" transform="translate(-95 -139.8)"/><path class="cls-2" d="M159.1,192l-1.9-2.3,2.5-2.1,1.9,2.3Zm9.2,10.8-8.3-9.7,2.5-2.1,8.3,9.7Z" transform="translate(-95 -139.8)"/><path class="cls-2" d="M164.6,189.6l1.3-1-2.1-2.8,2.6-2,2.1,2.8,1.5-1.1,1.3,1.7-1.5,1.1,4.4,5.7c.4.6.8.8,1.1.5l1-.8,1.4,1.8a4.26,4.26,0,0,1-1.1,1.2c-1.6,1.4-3.1,1.4-4.4.1l-5-6.6-1.3,1Z" transform="translate(-95 -139.8)"/><path class="cls-2" d="M171.1,184.2l3.1-2,7.3,6.3-2.8-9.2,2.9-1.8,3.8,15.9a4,4,0,0,1,.1,1.9c-.2.8-1.2,1.8-3.1,3.1l-1.5-2.3a1.38,1.38,0,0,0,.4-.3c1.3-.8,1.6-1.7,1-2.8a1.21,1.21,0,0,0-.5-.5Z" transform="translate(-95 -139.8)"/><path class="cls-2" d="M204.6,180.5l-3.3,1.4-8.2-11.6,5.4,12.8-3.3,1.4-6.6-15.8,4.8-2,8,10.9-2.1-13.4,4.8-2,6.6,15.8-3.3,1.4L202,166.6Z" transform="translate(-95 -139.8)"/><path class="cls-2" d="M223.4,174.5l-3.4.9a2.1,2.1,0,0,1-.7-1.1,5.41,5.41,0,0,1-3.4,2.8c-2.6.7-4.2-.2-4.8-2.8-.5-2.2.3-3.8,2.5-4.9a14,14,0,0,0,3-1.4,1.34,1.34,0,0,0,.4-1.6,1,1,0,0,0-1-.7,3.64,3.64,0,0,0-1.4.2,2,2,0,0,0-1.5,2.6l-3,.8q-1.2-4.35,3.9-5.7c3.4-.9,5.5-.1,6.2,2.5l1.8,6.7a2.3,2.3,0,0,0,1.1,1.3Zm-5.1-4.1-.2-.7a5.65,5.65,0,0,1-1.4.9c-.4.2-.9.3-1.3.5a1.79,1.79,0,0,0-1,.9,1.42,1.42,0,0,0-.1,1.1,1.53,1.53,0,0,0,.7,1,1.9,1.9,0,0,0,1.3.1c.2-.1.4-.1.6-.2A2.73,2.73,0,0,0,218.3,170.4Z" transform="translate(-95 -139.8)"/><path class="cls-2" d="M225.2,174,223,161.4l3.2-.6.3,1.9a3.66,3.66,0,0,1,2.8-2.7c3.2-.6,5.1.6,5.6,3.5l1.4,8.4-3.2.6-1.3-7.7a2.41,2.41,0,0,0-.6-1.6c-.4-.5-1.2-.6-2.2-.4-1.6.4-2.2,1.2-2,2.5l1.4,8Z" transform="translate(-95 -139.8)"/><path class="cls-2" d="M249.8,171.1l-3.5.2a1.59,1.59,0,0,1-.4-1.2,5.89,5.89,0,0,1-3.8,2.1c-2.7.2-4.1-1.1-4.1-3.7-.1-2.3,1.1-3.7,3.4-4.3a11.4,11.4,0,0,0,3.3-.8c.6-.2.8-.7.7-1.5q0-.75-.9-.9a6.15,6.15,0,0,0-1.4-.1,2,2,0,0,0-2,2.2l-3.1.2c-.2-3,1.5-4.6,5-4.8s5.4,1,5.6,3.7l.5,7a2.06,2.06,0,0,0,.8,1.5Zm-4.2-5v-.7a3.39,3.39,0,0,1-1.5.6l-1.4.3a1.85,1.85,0,0,0-1.2.7,1.5,1.5,0,0,0-.4,1.1,1.29,1.29,0,0,0,.5,1.1,1.25,1.25,0,0,0,1.2.3,1.27,1.27,0,0,0,.6-.1C245.1,169,245.8,167.9,245.6,166.1Z" transform="translate(-95 -139.8)"/><path class="cls-2" d="M260.3,158.7l3.1.1-.5,13.1a4.5,4.5,0,0,1-2.2,3.8,8.93,8.93,0,0,1-5.2.8,6.42,6.42,0,0,1-3-1.1,2.86,2.86,0,0,1-1.4-2.7l3.5.1c-.1.7.6,1.2,1.9,1.5.2,0,.3.1.4.1a3.61,3.61,0,0,0,2-.6,2.09,2.09,0,0,0,.9-1.7l.1-1.8a5.2,5.2,0,0,1-1.5,1.3,3.29,3.29,0,0,1-2,.4,5.44,5.44,0,0,1-2-.4,3.57,3.57,0,0,1-1.6-1.2,6.93,6.93,0,0,1-1.5-5.1,7.44,7.44,0,0,1,2.1-5.4,4.39,4.39,0,0,1,3.6-1.4,3.34,3.34,0,0,1,2.1.8q.15.15,1.2,1.5Zm-3,2.6a2.68,2.68,0,0,0-2.3,1.2,5.32,5.32,0,0,0-.8,2.6,4.9,4.9,0,0,0,.6,2.7,2.58,2.58,0,0,0,2.2,1.4,2.68,2.68,0,0,0,2.3-1.2,5.32,5.32,0,0,0,.8-2.6,4.9,4.9,0,0,0-.6-2.7A2.71,2.71,0,0,0,257.3,161.3Z" transform="translate(-95 -139.8)"/><path class="cls-2" d="M277.1,168.1l-8.4-1.2a3,3,0,0,0,.1,2.1,2.39,2.39,0,0,0,2,1.5,2.62,2.62,0,0,0,1.5-.2c.6-.2,1-.5,1.1-1l3.2.5a4.72,4.72,0,0,1-2.6,2.6,6.19,6.19,0,0,1-3.7.6,5.72,5.72,0,0,1-3.3-1.6,5.58,5.58,0,0,1-1.7-3.2,4.22,4.22,0,0,1,0-1.6,12.82,12.82,0,0,1,.5-2.7c1.1-3.4,3.2-4.8,6.4-4.3a5.22,5.22,0,0,1,4.4,3.2,7.68,7.68,0,0,1,.5,4.3A1.7,1.7,0,0,1,277.1,168.1Zm-8.1-3.4,5,.7c.2-1.7-.4-2.7-1.9-3a2.55,2.55,0,0,0-2.1.4A3.86,3.86,0,0,0,269,164.7Z" transform="translate(-95 -139.8)"/><path class="cls-2" d="M281.2,174.4l-3.1-.9,3.5-12.3,3.1.9-.5,1.8c1.4-1.1,2.7-1.5,3.8-1.2a3.63,3.63,0,0,1,2.1,1.3q.3.45.9,1.5a5,5,0,0,1,1.9-1,4.64,4.64,0,0,1,2,.1l.9.3c2,.9,2.7,2.5,2,4.8l-2.4,8.5-3.1-.9,2.4-8.4c.2-.8-.2-1.4-1.2-1.7a2.26,2.26,0,0,0-1.8.1,2.21,2.21,0,0,0-1.1,1.4l-2.1,7.5-3.1-.9,2.4-8.4c.1-.9-.4-1.5-1.4-1.8a2,2,0,0,0-1.7.1,2.38,2.38,0,0,0-1,1.5Z" transform="translate(-95 -139.8)"/><path class="cls-2" d="M309.7,178.8l-7.8-3.3a2.6,2.6,0,0,0-.4,2,2.71,2.71,0,0,0,1.6,2,2.62,2.62,0,0,0,1.5.2,2,2,0,0,0,1.3-.6l3,1.3a5.43,5.43,0,0,1-3.2,1.9,6.1,6.1,0,0,1-3.8-.3,6,6,0,0,1-2.8-2.4,5.37,5.37,0,0,1-.8-3.5,5.62,5.62,0,0,1,.4-1.5,11.51,11.51,0,0,1,1.2-2.5c1.9-3,4.3-3.8,7.3-2.6a5.48,5.48,0,0,1,3.5,4.2,8.21,8.21,0,0,1-.6,4.3A5.94,5.94,0,0,0,309.7,178.8Zm-6.9-5.3,4.7,2c.7-1.6.3-2.7-1.1-3.4a2.59,2.59,0,0,0-2.1-.2A2.65,2.65,0,0,0,302.8,173.5Z" transform="translate(-95 -139.8)"/><path class="cls-2" d="M309.2,184.6l6.2-11.2,2.9,1.6-.9,1.7a3.34,3.34,0,0,1,3.8-.3q4.35,2.4,2.1,6.3l-4.1,7.5-2.9-1.6,3.8-6.8a4,4,0,0,0,.6-1.6c0-.7-.5-1.2-1.5-1.7-1.5-.7-2.5-.4-3.2.7l-4,7.1Z" transform="translate(-95 -139.8)"/><path class="cls-2" d="M327.4,180.6l1.3.9,1.9-2.9,2.7,1.8-1.9,2.9,1.5,1-1.2,1.8-1.5-1-4,6c-.4.6-.5,1-.1,1.2l1.1.7-1.3,1.9a5.21,5.21,0,0,1-1.5-.6c-1.8-1.1-2.3-2.5-1.5-4.1l4.6-6.9-1.3-.9Z" transform="translate(-95 -139.8)"/><path class="cls-2" d="M350.2,199.2l-2.5-2.2a2.13,2.13,0,0,0,.5-2.3,5.15,5.15,0,0,0-1.4-2.1c-1.4-1.3-2.7-1.5-3.6-.6a1.21,1.21,0,0,0-.6.9,3,3,0,0,0,.3,1.1c0,.3.8,1.5,2.5,3.7a8.68,8.68,0,0,1,1.8,3.4,4,4,0,0,1-1.1,3.5,5.11,5.11,0,0,1-2.1,1.5,4.55,4.55,0,0,1-2.5.4,9.88,9.88,0,0,1-4.8-2.7c-.4-.4-.8-.9-1.3-1.5a6.46,6.46,0,0,1-1.1-2.2,5.52,5.52,0,0,1,1.2-4.9l2.6,2.3a2.52,2.52,0,0,0-.5,2.5,5.39,5.39,0,0,0,1.6,2.2c1.7,1.4,3.1,1.6,4,.5a2.12,2.12,0,0,0,.3-2.2,7.27,7.27,0,0,0-1.3-2c-1.3-1.7-2.1-2.8-2.3-3.1a4.05,4.05,0,0,1,.4-5.1,4.83,4.83,0,0,1,4-1.8,7.75,7.75,0,0,1,4.4,2.1c2,1.8,3,3.6,2.9,5.5a5,5,0,0,1-1.2,2.9Z" transform="translate(-95 -139.8)"/><path class="cls-2" d="M352.5,200.5l2.4,2.7-5.1,8.2,8.7-4.2,2.3,2.5-15.1,6.2a3.58,3.58,0,0,1-1.9.4c-.8,0-2-.9-3.5-2.6l2-1.8c.1.1.2.3.3.4,1,1.1,2,1.3,2.9.5a2.09,2.09,0,0,0,.4-.6Z" transform="translate(-95 -139.8)"/><path class="cls-2" d="M354.8,216.6l1.9,2.6a2.26,2.26,0,0,0-.5,1.7,5,5,0,0,0,.7,1.7,3,3,0,0,0,.9,1,1.23,1.23,0,0,0,1.3-.1c.5-.4.7-.8.5-1.3l-1.5-4c-.6-1.8-.3-3.1.9-4a3.82,3.82,0,0,1,3.5-.8,5.4,5.4,0,0,1,2.9,2.2,6.68,6.68,0,0,1,1.6,3.7,3.72,3.72,0,0,1-1.6,3.5l-1.9-2.6a1.85,1.85,0,0,0,.7-.9,1.47,1.47,0,0,0-.1-1.1,2.87,2.87,0,0,0-.6-1.1,2.84,2.84,0,0,0-1-.9,1.27,1.27,0,0,0-1.2,0,.89.89,0,0,0-.2,1.1l1.8,4.6a3,3,0,0,1,.1,2.1,3,3,0,0,1-1.2,1.7,5.38,5.38,0,0,1-2.5.9,3.83,3.83,0,0,1-2.5-.7,8.12,8.12,0,0,1-2.2-2.3,7.86,7.86,0,0,1-1.3-2.6C353,219.1,353.4,217.6,354.8,216.6Z" transform="translate(-95 -139.8)"/><path class="cls-2" d="M369.7,222.4l.8,1.4,2.9-1.8,1.7,2.8-2.9,1.8,1,1.6-1.9,1.1-1-1.6-6.1,3.8c-.6.4-.8.7-.6,1.1l.7,1.1-1.9,1.2a12,12,0,0,1-1.1-1.2c-1.2-1.7-1.1-3.2.3-4.3l7.1-4.3-.9-1.4Z" transform="translate(-95 -139.8)"/><path class="cls-2" d="M373.2,243.5l-3.8-7.6a2.41,2.41,0,0,0-1.6,1.3,2.48,2.48,0,0,0,0,2.5,3.46,3.46,0,0,0,1,1.1,1.62,1.62,0,0,0,1.4.4l1.5,2.9a5.06,5.06,0,0,1-3.7-.6,7,7,0,0,1-2.7-2.7,5.66,5.66,0,0,1-.6-3.6,5.06,5.06,0,0,1,1.7-3.2,4.85,4.85,0,0,1,1.3-.9,8,8,0,0,1,2.5-1.1c3.4-1.1,5.8-.1,7.3,2.7a5.41,5.41,0,0,1,0,5.5,8.24,8.24,0,0,1-3.2,2.9C373.9,243.2,373.6,243.4,373.2,243.5Zm-1.8-8.5,2.3,4.5c1.5-.8,2-1.9,1.3-3.3a2.76,2.76,0,0,0-1.5-1.5A2.63,2.63,0,0,0,371.4,235Z" transform="translate(-95 -139.8)"/><path class="cls-2" d="M370.4,250.5l-1.1-3.1,12-4.3,1.1,3.1-1.8.6c1.7.5,2.8,1.3,3.2,2.4a4.41,4.41,0,0,1,.2,2.5,7.43,7.43,0,0,1-.8,1.6,6.73,6.73,0,0,1,1.9.9,5.55,5.55,0,0,1,1.1,1.7l.3.9c.5,2.1-.5,3.6-2.8,4.4l-8.3,3-1.1-3.1,8.3-2.9c.8-.3,1-.9.7-2a2.27,2.27,0,0,0-1.1-1.4,2.24,2.24,0,0,0-1.8-.1l-7.3,2.6-1.1-3.1,8.3-2.9a1.7,1.7,0,0,0,.7-2.2,1.84,1.84,0,0,0-1.1-1.3,2.76,2.76,0,0,0-1.8,0Z" transform="translate(-95 -139.8)"/><path class="cls-2" d="M210.9,429.6l3.6,1.4a7.94,7.94,0,0,1-1.7,2.5,6.57,6.57,0,0,1-2.6,1.6,9.56,9.56,0,0,1-6-.2,7.6,7.6,0,0,1-4.4-3.6,9.42,9.42,0,0,1-1-5.6,11.71,11.71,0,0,1,.9-3.3,12.58,12.58,0,0,1,1.7-3.3c2.7-3.6,6.1-4.6,10.1-3.1a8.91,8.91,0,0,1,4.3,3.2,6.65,6.65,0,0,1,.9,6.1l-3.5-1.3a3.62,3.62,0,0,0-.2-2.5,4.47,4.47,0,0,0-3.2-2.5,4.27,4.27,0,0,0-2.5.1,5.41,5.41,0,0,0-2.2,1.5,9.64,9.64,0,0,0-1.7,2.9,10,10,0,0,0-.9,4,4.39,4.39,0,0,0,1.6,3.6,10.54,10.54,0,0,0,1.1.7,9.36,9.36,0,0,0,1.6.4,3.49,3.49,0,0,0,2.9-.8C210.1,430.8,210.5,430.3,210.9,429.6Z" transform="translate(-95 -139.8)"/><path class="cls-2" d="M230.2,435.2l-9.3-2.1a3.68,3.68,0,0,0-.1,2.3,3,3,0,0,0,2.2,1.9,4.85,4.85,0,0,0,1.7,0,2.15,2.15,0,0,0,1.4-1l3.6.8a5.48,5.48,0,0,1-3.2,2.7,6.91,6.91,0,0,1-4.2.4,6.65,6.65,0,0,1-3.6-2.1,5.91,5.91,0,0,1-1.6-3.7,13.57,13.57,0,0,1,.1-1.8,11.14,11.14,0,0,1,.8-3c1.5-3.7,4.1-5.1,7.6-4.3a5.9,5.9,0,0,1,4.7,4,9,9,0,0,1,.2,4.9C230.4,434.5,230.3,434.8,230.2,435.2Zm-8.8-4.5L227,432c.4-1.9-.2-3.1-1.9-3.5a2.87,2.87,0,0,0-3.7,2.2Z" transform="translate(-95 -139.8)"/><path class="cls-2" d="M233.2,441.7l1.8-14.3,3.7.5-.3,2.8a5.41,5.41,0,0,1,1.8-1.9,4.16,4.16,0,0,1,2.5-.7c.2,0,.3.1.5.1l-.5,3.8a6.88,6.88,0,0,0-1.3-.2,3,3,0,0,0-3.5,2.4l-1,8Z" transform="translate(-95 -139.8)"/><path class="cls-2" d="M244.4,428.8l1.8.1.2-3.9,3.7.2-.2,3.9,2.1.1-.1,2.5-2.1-.1-.4,8.1c0,.8.2,1.3.6,1.3l1.5.1-.1,2.5a5.66,5.66,0,0,1-1.8.3q-3.6,0-3.9-3l.4-9.3-1.8-.1Z" transform="translate(-95 -139.8)"/><path class="cls-2" d="M255.1,427.2l-.1-3.3,3.7-.1.1,3.3Zm.3,16-.3-14.4,3.7-.1.3,14.4Z" transform="translate(-95 -139.8)"/><path class="cls-2" d="M261.8,431.4l-.2-2.5,2-.2-.2-1.7c-.2-2.4.8-3.7,3.2-3.9l2.3-.2.2,2.7-1.3.1c-.5,0-.8.4-.7,1l.1,1.5,2.2-.2.2,2.5-2.2.2,1,11.6-3.7.3-1-11.6Z" transform="translate(-95 -139.8)"/><path class="cls-2" d="M272,426l-.5-3.3,3.6-.6.5,3.3Zm2.5,15.8-2.3-14.2,3.6-.6,2.3,14.2Z" transform="translate(-95 -139.8)"/><path class="cls-2" d="M293.7,431.5l-9.3,2.3a3,3,0,0,0,1,2.1,3.19,3.19,0,0,0,2.8.7,3.68,3.68,0,0,0,1.5-.8,2.24,2.24,0,0,0,.8-1.5l3.5-.9a6,6,0,0,1-1.6,3.9,7.43,7.43,0,0,1-3.6,2.3,6.38,6.38,0,0,1-4.1-.2,6.09,6.09,0,0,1-3.1-2.6c-.2-.4-.4-.9-.7-1.6a15.94,15.94,0,0,1-.6-3c-.3-4,1.3-6.4,4.8-7.3a6.09,6.09,0,0,1,6,1.4,9.67,9.67,0,0,1,2.4,4.2A8.66,8.66,0,0,1,293.7,431.5Zm-9.8-.1,5.5-1.4c-.5-1.9-1.6-2.6-3.3-2.3a2.87,2.87,0,0,0-2,1.3A2.84,2.84,0,0,0,283.9,431.4Z" transform="translate(-95 -139.8)"/><path class="cls-2" d="M304.6,413.3l7,18.1-3.4,1.3-.5-1.4a4.6,4.6,0,0,1-2.7,3.2,5.49,5.49,0,0,1-3.2.5,5.6,5.6,0,0,1-2.8-1.7,14.37,14.37,0,0,1-2.5-3.3,10.13,10.13,0,0,1-.8-4.7,5.39,5.39,0,0,1,3.4-4.8,3.86,3.86,0,0,1,4.6.6l-2.5-6.5Zm-3.5,9.8a2.88,2.88,0,0,0-1.8,2.4,6.5,6.5,0,0,0,2,5.3,2.67,2.67,0,0,0,2.9.6,2.63,2.63,0,0,0,1.7-2.4,6.5,6.5,0,0,0-2-5.3A2.48,2.48,0,0,0,301.1,423.1Z" transform="translate(-95 -139.8)"/><path class="cls-1" d="M688.8,260a27.8,27.8,0,0,0-10.4-12.5c-13.5-8.6-34.1-9.2-48.1-1.4-7.6,3.9-12.6,11.6-14.2,19.4-2.8,13-2.1,28.4,7.9,38.1,11.7,10.2,28.6,12.5,43.7,8.3a19.71,19.71,0,0,0,4.6-1.5l.4-.2a30.06,30.06,0,0,0,12.5-9.4C693,289.5,693.5,272.6,688.8,260Zm-24.6,29.1a7.8,7.8,0,0,1-4.8,5.9,16.53,16.53,0,0,1-13.6-.8c-3.2-2.3-3.6-6-4.1-9.6-.3-7.1-.8-14.5,1.2-21,1.5-4,5.8-5,9.7-5.3,4.1,0,8,.6,10.5,3.9,1.6,2.3,1.5,5.4,1.8,8.2C664.8,276.2,665.3,283.2,664.2,289.1Z" transform="translate(-95 -139.8)"/><path class="cls-1" d="M540.9,295.5c-3.4-.2-7.3.1-10.6-.3l.1-35.9.2-.3,10.3-.1c.1-5.8.2-12.1-.1-17.4l-39.2-.1-6.5.1c-.1,5.4-.1,11.8,0,17.3,3.5.1,6.9,0,10.3.3v34.8l-.1,1.4-10.3.2c-.2,5.7-.2,11.2,0,16.9h45.9Z" transform="translate(-95 -139.8)"/><path class="cls-1" d="M656.4,320a82.76,82.76,0,0,1-15.9,17c-.2.3-.8.2-1-.1-2.6-1.6-5.4-3-7.9-4.6a89.61,89.61,0,0,0,9.1-12.4h-3.2a76.59,76.59,0,0,1-8.7,11.2,112.27,112.27,0,0,0-13.4-4.7l-.5-.4c.7-2.1,2.1-4,2.5-6.1h-2.8l-2.8,5.5a152.71,152.71,0,0,0-19.2-2.5c-.3-.9.1-2.2-.3-3.1h-2.7c-.2,1.2.3,2.2-.3,3.2a112.48,112.48,0,0,0-18.7,2.3l-2.8-5.4a9.06,9.06,0,0,0-2.9.1l2.6,6-.3.3a123.1,123.1,0,0,0-13.7,4.8l-.4-.2a84.39,84.39,0,0,1-8-10.1c-.5-1.7-2.6-.7-3.7-.9a84.45,84.45,0,0,0,9.2,12.6c-2.8,1.6-5.6,3.5-8.5,4.8A72.86,72.86,0,0,1,525.7,320a12.15,12.15,0,0,0-3.3,0,81.47,81.47,0,0,0,31.3,27.9.1.1,0,0,1,.1-.1c.1,0,.3.2.1.3a85,85,0,0,0,26.2,8.1c32,4.2,62.5-9.4,80.2-36.2A25.24,25.24,0,0,0,656.4,320ZM613,329.2l.3-.2a59.56,59.56,0,0,1,12.7,4.4,59.73,59.73,0,0,1-11.6,9.8c-2.4,1.4-4.8,3-7.3,4.2l-4.5-1.9.3-.7A109.12,109.12,0,0,0,613,329.2Zm-20.5-3.1a82.83,82.83,0,0,1,17.4,2l.1.3a114.91,114.91,0,0,1-10.5,15.9c-1.8.2-3.4-.5-5.2-.6l-1.8-.2C592.3,337.5,592.2,332.2,592.5,326.1ZM572.4,328a92.1,92.1,0,0,1,16.9-1.8l.1,17.3c-2.2.5-4.6.5-6.7,1a88.87,88.87,0,0,1-10.8-16.1Zm-16.7,5.5a64,64,0,0,1,12.7-4.5l.4.1a180,180,0,0,0,10.5,16.3c-1.5.8-3.2,1.3-4.7,2.1a72.34,72.34,0,0,1-19-13.7v-.3ZM569.1,351a73.77,73.77,0,0,1-24.4-11.5v-.3a58.12,58.12,0,0,1,7.7-4.3,109.86,109.86,0,0,0,18.7,14.4A5.51,5.51,0,0,1,569.1,351Zm38.6,1.3a78.31,78.31,0,0,1-34.4-.2c-.2-.5.5-.6.8-.9,9.7-6.2,24.8-6.2,34.3.5C608.8,352.3,607.9,352.1,607.7,352.3Zm10-2.8-4.9,1.5a11.87,11.87,0,0,1-2.3-1.6l.2-.3a92.38,92.38,0,0,0,18.4-14.2,41.58,41.58,0,0,1,8,4.4C631.4,343.9,624.6,346.9,617.7,349.5Z" transform="translate(-95 -139.8)"/><path class="cls-1" d="M525,233.6a88.19,88.19,0,0,1,8.4-10.1,57.06,57.06,0,0,1,8.1-6.9c2.7,1.7,5.7,3.2,8.3,4.8-3.2,4-6.6,8-9,12.3a6.47,6.47,0,0,0,3.1,0,75.64,75.64,0,0,1,8.7-10.9c4.5,1.6,8.8,3.4,13.4,4.6l.4.4-2.6,5.9a10.05,10.05,0,0,0,3,0c.9-1.7,1.7-3.7,2.7-5.4a105.1,105.1,0,0,0,18.9,2.2c.8.7.2,2.3.5,3.2h2.8c.3-1-.1-2.1.3-3.1a92.62,92.62,0,0,0,18.2-2.4l.5.1,2.8,5.3c.9,0,2.2.2,2.9-.2l-2.6-5.9.2-.2a107.49,107.49,0,0,0,13.8-4.9,122.47,122.47,0,0,1,9,11.2,10.11,10.11,0,0,0,3.1-.2,40.92,40.92,0,0,0-4.5-6.4,46.25,46.25,0,0,0-4.6-5.5V221l7.3-4.2,1.1-.4a73.92,73.92,0,0,1,16.4,17.1c1.3,0,2.3.4,3.3-.1a82.34,82.34,0,0,0-61.8-36.2l-.1.2-.2-.2a48,48,0,0,0-9.3-.1,26.34,26.34,0,0,0-3.9.1,81.54,81.54,0,0,0-62.4,36.5C522.7,233.6,523.9,234,525,233.6Zm43.2-9-.4.1a86.1,86.1,0,0,1-12.4-4.2l.2-.6A84,84,0,0,1,574,206.5c1.6.6,3.1,1.1,4.7,1.8l-.3.8A118.28,118.28,0,0,0,568.2,224.6Zm20.7,2.7c-2.9.4-5.5-.1-8.4-.3a61.21,61.21,0,0,1-9.2-1.6,93.62,93.62,0,0,1,10.8-16l6.7.9C589.1,215.6,588.9,221.7,588.9,227.3Zm3.2.1c-.2-5.4-.1-11.5,0-17.1l6.5-.9c4.1,5.1,8,10.3,10.7,15.9A71,71,0,0,1,592.1,227.4Zm33.2-7.1a67.8,67.8,0,0,1-12.7,4.3c-3.2-5.4-6.8-10.8-10.7-16.1,1.5-.8,3.2-1.4,4.8-2.2A73.7,73.7,0,0,1,625.5,220ZM612,202.8a74.25,74.25,0,0,1,24.5,11.5l-.2.4-7.2,4h-.5a92.46,92.46,0,0,0-18.5-14.1C610.2,203.8,611.3,203.3,612,202.8Zm-4.2-1v.2c-9.1,6.5-23.7,7.2-33.3,1.1-.5-.4-1.6-.6-1.7-1.3C583.9,199.2,596.9,199,607.8,201.8Zm-63.5,12.6a73,73,0,0,1,21.6-10.8c.3-.3.5-.6.9-.6v.2c.8.2,1.5-.7,2.2-.1s1.4.9,1.9,1.4a104.35,104.35,0,0,0-18.6,14.4,32,32,0,0,1-7.9-4.3v-.2Z" transform="translate(-95 -139.8)"/><path class="cls-1" d="M589,296.3c-9.8,2.7-20.4.6-27.5-6.7-.8-1-1.4-2.2-2.2-3.3l-14,.1c-.2,8.3-.3,17.8,0,26l15.6-.1.2-4.9c1.8.8,3.5,1.8,5.3,2.8,10.8,4.5,24.8,5.5,35.5,0a21,21,0,0,0,10.8-21.5c-1.1-8.7-9.5-16.6-17.9-18.7l-25.2-7.3-1.9-.9a3,3,0,0,1-1.2-2.8c2-3.4,6.6-2.3,10-2.3,7.3,1,14.8,3.5,19.1,10.1,4.6,0,9.9.1,14.9-.1.2-8.4-.1-15.7-.2-24.2-4.7-.1-10.4-.1-15.1.1-.2,1.2.2,2.9-.3,4.2l-4.8-2.6c-11.5-4.8-27.5-5.3-37.9,2.2-6.8,4.9-8.8,13.7-7.1,21.5,1.4,7.4,8.4,12.8,15.2,15.3,9.3,3.3,18.9,5.6,28.3,8.8.9.4,2.2,1.3,2,2.5C590.7,295.3,589.7,295.9,589,296.3Z" transform="translate(-95 -139.8)"/><path class="cls-2" d="M536.6,394.1v-3l3.1-2.9c6.2-5.7,9.1-8.9,9.1-12.3,0-2.3-1.3-4.4-4.7-4.4a9.51,9.51,0,0,0-5.6,2.2l-1.5-3.5a13.3,13.3,0,0,1,8.1-2.7c5.8,0,8.6,3.7,8.6,7.9,0,4.6-3.3,8.3-7.9,12.5l-2.3,2v.1h10.8v4.1Z" transform="translate(-95 -139.8)"/><path class="cls-2" d="M558.2,394.1v-3l3.1-2.9c6.2-5.7,9.1-8.9,9.1-12.3,0-2.3-1.3-4.4-4.7-4.4a9.51,9.51,0,0,0-5.6,2.2l-1.5-3.5a13.3,13.3,0,0,1,8.1-2.7c5.8,0,8.6,3.7,8.6,7.9,0,4.6-3.3,8.3-7.9,12.5l-2.3,2v.1H576v4.1Z" transform="translate(-95 -139.8)"/><path class="cls-2" d="M598.4,380.8c0,8.4-3.3,13.7-9.6,13.7-6.1,0-9.3-5.5-9.3-13.5,0-8.2,3.5-13.6,9.6-13.6C595.4,367.4,598.4,373.1,598.4,380.8Zm-13.9.3c0,6.4,1.7,9.7,4.5,9.7s4.4-3.6,4.4-9.8-1.5-9.7-4.4-9.7C586.3,371.2,584.5,374.5,584.5,381.1Z" transform="translate(-95 -139.8)"/><path class="cls-2" d="M620,380.8c0,8.4-3.3,13.7-9.6,13.7-6.1,0-9.3-5.5-9.3-13.5,0-8.2,3.5-13.6,9.6-13.6C617.1,367.4,620,373.1,620,380.8Zm-13.9.3c0,6.4,1.7,9.7,4.5,9.7s4.4-3.6,4.4-9.8-1.5-9.7-4.4-9.7C607.9,371.2,606.1,374.5,606.1,381.1Z" transform="translate(-95 -139.8)"/><path class="cls-2" d="M641.6,380.8c0,8.4-3.3,13.7-9.6,13.7-6.1,0-9.3-5.5-9.3-13.5,0-8.2,3.5-13.6,9.6-13.6C638.7,367.4,641.6,373.1,641.6,380.8Zm-13.9.3c0,6.4,1.7,9.7,4.5,9.7s4.4-3.6,4.4-9.8-1.5-9.7-4.4-9.7C629.6,371.2,627.7,374.5,627.7,381.1Z" transform="translate(-95 -139.8)"/><path class="cls-1" d="M589,416.8A119,119,0,0,1,470.1,297.9c0-65.6,53.3-119,118.9-119A119,119,0,0,1,707.9,297.8C707.9,363.4,654.6,416.8,589,416.8Zm0-234.3A115.4,115.4,0,0,0,473.7,297.8c0,63.6,51.7,115.4,115.3,115.4A115.4,115.4,0,0,0,704.3,297.9C704.3,234.3,652.6,182.5,589,182.5Z" transform="translate(-95 -139.8)"/><path class="cls-3" d="M589,455.8c-87.1,0-158-70.9-158-158s70.9-158,158-158,158,70.9,158,158S676.1,455.8,589,455.8Zm0-312.2c-85.1,0-154.3,69.2-154.3,154.3S503.9,452.1,589,452.1s154.3-69.2,154.3-154.3S674.1,143.6,589,143.6Z" transform="translate(-95 -139.8)"/><path class="cls-2" d="M446,272.1l2.7-11.8,2.9.7-1.9,8.3,3.8.9,1.7-7.3,2.9.7-1.7,7.3,7.2,1.6-.8,3.4Z" transform="translate(-95 -139.8)"/><path class="cls-2" d="M468.3,257.4a6,6,0,0,1-3.3,3.8,6.93,6.93,0,0,1-5.1-.1,7.07,7.07,0,0,1-4.1-3.1,5.76,5.76,0,0,1-.2-5,6,6,0,0,1,3.3-3.8,6.93,6.93,0,0,1,5.1.1,7.41,7.41,0,0,1,4.1,3.1A6.55,6.55,0,0,1,468.3,257.4Zm-10.1-3.5a2.52,2.52,0,0,0,.5,2.6A4.23,4.23,0,0,0,461,258a5.12,5.12,0,0,0,2.7.2,2.66,2.66,0,0,0,2-1.7,2.52,2.52,0,0,0-.5-2.6,4.23,4.23,0,0,0-2.3-1.5,5.12,5.12,0,0,0-2.7-.2A2.38,2.38,0,0,0,458.2,253.9Z" transform="translate(-95 -139.8)"/><path class="cls-2" d="M473.5,244.5a6.32,6.32,0,0,1-3.7,3.5,7.35,7.35,0,0,1-5.1-.7,7.45,7.45,0,0,1-3.8-3.6,6.87,6.87,0,0,1,4-8.5,7.35,7.35,0,0,1,5.1.7,7.71,7.71,0,0,1,3.8,3.5A6.13,6.13,0,0,1,473.5,244.5Zm-9.7-4.5a2.67,2.67,0,0,0,.2,2.6,5.1,5.1,0,0,0,2.1,1.7,5.2,5.2,0,0,0,2.7.5,2.41,2.41,0,0,0,2.1-1.5,2.67,2.67,0,0,0-.2-2.6,5.1,5.1,0,0,0-2.1-1.7,5.2,5.2,0,0,0-2.7-.5A2.41,2.41,0,0,0,463.8,240Z" transform="translate(-95 -139.8)"/><path class="cls-2" d="M468,218.2l14.7,9L481,230l-1.1-.7a4,4,0,0,1-.2,3.7,5.09,5.09,0,0,1-2,2.1,4.62,4.62,0,0,1-2.9.3,11.12,11.12,0,0,1-3.5-1,8.5,8.5,0,0,1-3.1-2.9,4.84,4.84,0,0,1-.2-5.3c.9-1.6,2-2.3,3.6-2.1l-5.2-3.2Zm2.8,8.8a2.26,2.26,0,0,0,.1,2.6,5.16,5.16,0,0,0,1.8,1.8,4.58,4.58,0,0,0,2.4.8,2.37,2.37,0,0,0,2.4-1.1,2.26,2.26,0,0,0-.1-2.6,5.16,5.16,0,0,0-1.8-1.8,4.58,4.58,0,0,0-2.4-.8A2.37,2.37,0,0,0,470.8,227Z" transform="translate(-95 -139.8)"/><path class="cls-2" d="M487.2,202.4l-2.2,2.5a2.13,2.13,0,0,0-2.3-.5,5.15,5.15,0,0,0-2.1,1.4q-2,2.25-.6,3.6a1.4,1.4,0,0,0,.9.6,3,3,0,0,0,1.1-.3c.3,0,1.5-.9,3.6-2.6a9.12,9.12,0,0,1,3.4-1.9,3.94,3.94,0,0,1,3.6,1.1,5.11,5.11,0,0,1,1.5,2.1,4.55,4.55,0,0,1,.4,2.5,10.43,10.43,0,0,1-2.6,4.8,5,5,0,0,1-1.5,1.3,6.46,6.46,0,0,1-2.2,1.1,5.78,5.78,0,0,1-4.9-1.1l2.3-2.6a2.52,2.52,0,0,0,2.5.5,5.39,5.39,0,0,0,2.2-1.6c1.4-1.7,1.6-3.1.5-4.1a2.12,2.12,0,0,0-2.2-.3,7.27,7.27,0,0,0-2,1.3c-1.7,1.3-2.7,2.1-3.1,2.3a4,4,0,0,1-5.1-.3,4.94,4.94,0,0,1-1.9-4,7.16,7.16,0,0,1,2.1-4.4c1.8-2,3.6-3,5.4-2.9a4.93,4.93,0,0,1,2.9,1.1C487.1,202.2,487.2,202.3,487.2,202.4Z" transform="translate(-95 -139.8)"/><path class="cls-2" d="M506,201.2l-2.6,2.4a1.9,1.9,0,0,1-1.1-.7,5.52,5.52,0,0,1-1.7,4c-2,1.8-3.8,1.7-5.5-.3-1.5-1.7-1.5-3.6,0-5.5a11.74,11.74,0,0,0,2-2.7,1.19,1.19,0,0,0-.4-1.6,1,1,0,0,0-1.2-.2,2.84,2.84,0,0,0-1.1.8,2,2,0,0,0-.2,3l-2.3,2.1c-2-2.2-1.7-4.5.9-6.8s4.8-2.6,6.6-.6l4.7,5.1a2.11,2.11,0,0,0,1.6.6Zm-6.4-1.3-.5-.5a4.1,4.1,0,0,1-.8,1.4,10.63,10.63,0,0,0-.9,1.1,2.08,2.08,0,0,0-.5,1.2,1.5,1.5,0,0,0,.4,1.1,1.27,1.27,0,0,0,1.1.5,2.08,2.08,0,0,0,1.2-.5c.2-.1.3-.3.4-.4C500.9,202.5,500.8,201.3,499.6,199.9Z" transform="translate(-95 -139.8)"/><path class="cls-2" d="M500.3,192.7l-1.4-1.7,1.4-1.1-.9-1.2c-1.3-1.7-1.1-3.1.5-4.4l1.6-1.3,1.5,1.9-.9.7c-.4.3-.4.7,0,1.1l.8,1.1,1.6-1.2,1.4,1.7-1.6,1.2,6.4,8.1-2.6,2-6.4-8.1Z" transform="translate(-95 -139.8)"/><path class="cls-2" d="M519.5,185l-7.1,4.7a2.73,2.73,0,0,0,1.5,1.5,2.5,2.5,0,0,0,2.5-.3,3.46,3.46,0,0,0,1-1.1,1.66,1.66,0,0,0,.2-1.5l2.7-1.8a5.33,5.33,0,0,1-.2,3.7,6.39,6.39,0,0,1-2.3,3,5.51,5.51,0,0,1-3.5,1,4.84,4.84,0,0,1-3.4-1.3,6.93,6.93,0,0,1-1.1-1.2,10.89,10.89,0,0,1-1.4-2.3c-1.4-3.2-.8-5.7,1.9-7.5a5.32,5.32,0,0,1,5.4-.6,7.37,7.37,0,0,1,3.2,2.9A1.7,1.7,0,0,1,519.5,185Zm-8.3,2.8,4.2-2.8a2.36,2.36,0,0,0-3.4-1,2.74,2.74,0,0,0-1.3,1.7A3.28,3.28,0,0,0,511.2,187.8Z" transform="translate(-95 -139.8)"/><path class="cls-2" d="M517.1,178.2l1.4-.8-1.7-3,2.9-1.6,1.7,3,1.6-.9,1.1,1.9-1.6.9L526,184c.4.6.7.9,1,.7l1.1-.6,1.1,2a5.3,5.3,0,0,1-1.2,1c-1.8,1.1-3.2.9-4.3-.5l-4-7.3-1.4.8Z" transform="translate(-95 -139.8)"/><path class="cls-2" d="M524.3,173.8l3.3-1.5,6.4,7.3-1.4-9.5,3.1-1.4,1.5,16.2a4.27,4.27,0,0,1-.2,1.9c-.3.8-1.5,1.7-3.5,2.6l-1.1-2.4c.2-.1.3-.1.5-.2,1.4-.6,1.8-1.5,1.4-2.6a2.09,2.09,0,0,0-.4-.6Z" transform="translate(-95 -139.8)"/><path class="cls-2" d="M558,174.9l-3.4.9-6.5-12.7,3.5,13.4-3.4.9-4.3-16.6,5-1.3,6.4,12-.2-13.6,5-1.3,4.3,16.6-3.4.9-3.5-13.4Z" transform="translate(-95 -139.8)"/><path class="cls-2" d="M577.5,171.6l-3.5.4a1.66,1.66,0,0,1-.5-1.2,5.42,5.42,0,0,1-3.7,2.3c-2.7.3-4.1-.8-4.4-3.4a3.91,3.91,0,0,1,3.1-4.5,10,10,0,0,0,3.2-1,1.24,1.24,0,0,0,.6-1.5,1.34,1.34,0,0,0-.9-.9,3.3,3.3,0,0,0-1.4,0,1.94,1.94,0,0,0-1.9,2.3l-3.1.4c-.4-2.9,1.2-4.6,4.7-5.1s5.4.7,5.8,3.3l.9,6.9a2.16,2.16,0,0,0,.9,1.4Zm-4.5-4.8-.1-.7a5.23,5.23,0,0,1-1.5.7c-.4.1-.9.2-1.4.3a2.33,2.33,0,0,0-1.1.7,2,2,0,0,0-.3,1.1,2,2,0,0,0,.6,1.1,2.13,2.13,0,0,0,1.2.3c.2,0,.4-.1.6-.1A2.69,2.69,0,0,0,573,166.8Z" transform="translate(-95 -139.8)"/><path class="cls-2" d="M579.3,171.4l-.3-12.8,3.3-.1v1.9a3.4,3.4,0,0,1,3.1-2.2c3.3-.1,4.9,1.4,5,4.3l.2,8.5-3.3.1-.2-7.8a3.42,3.42,0,0,0-.3-1.7c-.3-.6-1.1-.8-2.1-.7-1.6.2-2.4.9-2.4,2.2l.2,8.1Z" transform="translate(-95 -139.8)"/><path class="cls-2" d="M604.1,172.1l-3.5-.3a1.91,1.91,0,0,1-.2-1.3,6,6,0,0,1-4.1,1.5c-2.7-.2-3.9-1.6-3.6-4.3.3-2.3,1.6-3.5,4-3.7a12.68,12.68,0,0,0,3.4-.3,1.26,1.26,0,0,0,.9-1.4,1,1,0,0,0-.7-1,2.77,2.77,0,0,0-1.3-.3c-1.4,0-2.2.6-2.3,1.9l-3.1-.2c.3-3,2.1-4.3,5.6-4s5.2,1.8,5,4.5l-.6,6.9a2.45,2.45,0,0,0,.6,1.6Zm-3.4-5.5.1-.7a6.22,6.22,0,0,1-1.6.4,6.6,6.6,0,0,0-1.4.1,2.2,2.2,0,0,0-1.2.5,1.39,1.39,0,0,0-.5,1,1.59,1.59,0,0,0,.4,1.2,1.66,1.66,0,0,0,1.2.5h.6A3,3,0,0,0,600.7,166.6Z" transform="translate(-95 -139.8)"/><path class="cls-2" d="M616.3,161.3l3,.6-2.4,12.9a4.17,4.17,0,0,1-2.7,3.4,9.09,9.09,0,0,1-5.2,0,5.3,5.3,0,0,1-2.8-1.6,2.89,2.89,0,0,1-1-2.9l3.4.6c-.2.7.4,1.3,1.7,1.7a.76.76,0,0,0,.4.1,2.82,2.82,0,0,0,2-.4,2.41,2.41,0,0,0,1.2-1.6l.3-1.8a7.7,7.7,0,0,1-1.7,1.1,3.66,3.66,0,0,1-2.1.1,10.78,10.78,0,0,1-1.9-.6,4.66,4.66,0,0,1-1.4-1.4,7.12,7.12,0,0,1-.8-5.3,7.21,7.21,0,0,1,2.9-5,4.56,4.56,0,0,1,3.8-.9,3.88,3.88,0,0,1,2,1.1c.1.1.4.7,1,1.6Zm-3.4,2.2a2.52,2.52,0,0,0-2.5.9,4.13,4.13,0,0,0-1.1,2.5,4.85,4.85,0,0,0,.2,2.7,2.49,2.49,0,0,0,2,1.7,2.52,2.52,0,0,0,2.5-.9,4.13,4.13,0,0,0,1.1-2.5,4.85,4.85,0,0,0-.2-2.7A2.63,2.63,0,0,0,612.9,163.5Z" transform="translate(-95 -139.8)"/><path class="cls-2" d="M631.6,173l-8.1-2.4a3.17,3.17,0,0,0-.2,2.1,2.7,2.7,0,0,0,1.8,1.8,3.81,3.81,0,0,0,1.5.1,2,2,0,0,0,1.3-.8l3.1.9a5,5,0,0,1-3,2.2,6.19,6.19,0,0,1-3.8.1,6.43,6.43,0,0,1-3.1-2,5.23,5.23,0,0,1-1.2-3.4,13.7,13.7,0,0,1,.2-1.6,11.42,11.42,0,0,1,.9-2.6c1.5-3.2,3.9-4.3,7-3.4a5.21,5.21,0,0,1,3.9,3.8,7.89,7.89,0,0,1-.1,4.3A2.92,2.92,0,0,1,631.6,173Zm-7.5-4.5,4.9,1.4c.5-1.6,0-2.7-1.5-3.2a2.52,2.52,0,0,0-3.4,1.8Z" transform="translate(-95 -139.8)"/><path class="cls-2" d="M634.7,179.9l-3-1.3,5.2-11.7,3,1.3-.8,1.7q2.25-1.35,3.9-.6a3.82,3.82,0,0,1,1.9,1.6,5.35,5.35,0,0,1,.6,1.6,4.38,4.38,0,0,1,2-.7,3.78,3.78,0,0,1,2,.4,9,9,0,0,1,.9.5c1.9,1.1,2.3,2.8,1.3,5.1l-3.6,8.1-3-1.3,3.5-8c.3-.7,0-1.4-1-1.9a1.92,1.92,0,0,0-1.8-.1,2.09,2.09,0,0,0-1.3,1.3l-3.2,7.1-3-1.3,3.5-8c.2-.9-.2-1.5-1.1-2a2.26,2.26,0,0,0-1.8-.1,2.21,2.21,0,0,0-1.2,1.3Z" transform="translate(-95 -139.8)"/><path class="cls-2" d="M662.3,188.3l-7.2-4.4a2.74,2.74,0,0,0-.7,2,2.7,2.7,0,0,0,1.3,2.2,2.3,2.3,0,0,0,1.4.4,2,2,0,0,0,1.4-.4l2.8,1.7a5.35,5.35,0,0,1-3.5,1.4,5.85,5.85,0,0,1-3.7-.9,6.22,6.22,0,0,1-2.4-2.7,5.6,5.6,0,0,1-.3-3.6,7.26,7.26,0,0,1,.6-1.4,11.35,11.35,0,0,1,1.5-2.3c2.3-2.7,4.8-3.2,7.6-1.5a5.16,5.16,0,0,1,2.8,4.7,7.79,7.79,0,0,1-1.2,4.1A3.22,3.22,0,0,0,662.3,188.3Zm-6.1-6.3,4.3,2.6c.9-1.5.7-2.6-.6-3.5a2.34,2.34,0,0,0-2.1-.4A2.28,2.28,0,0,0,656.2,182Z" transform="translate(-95 -139.8)"/><path class="cls-2" d="M661,193.9l7.7-10.2,2.6,2-1.2,1.5a3.47,3.47,0,0,1,3.8.2c2.6,2,3,4.1,1.2,6.5l-5.2,6.8-2.6-2,4.7-6.2a3.12,3.12,0,0,0,.8-1.5c.1-.7-.3-1.3-1.2-1.9-1.4-.9-2.4-.8-3.2.2l-4.9,6.5Z" transform="translate(-95 -139.8)"/><path class="cls-2" d="M679.5,192.5l1.2,1.1L683,191l2.4,2.2-2.3,2.6,1.4,1.2-1.5,1.6-1.4-1.2-4.8,5.3q-.75.75-.3,1.2l1,.9-1.5,1.7a6.38,6.38,0,0,1-1.4-.8c-1.6-1.3-1.9-2.8-.9-4.3l5.6-6.2-1.2-1.1Z" transform="translate(-95 -139.8)"/><path class="cls-2" d="M699.4,214.3l-2.1-2.5a2.28,2.28,0,0,0,.9-2.2,4.87,4.87,0,0,0-1.1-2.3c-1.2-1.5-2.4-1.9-3.5-1.1-.4.3-.7.6-.7.8a2.23,2.23,0,0,0,.1,1.1,15.67,15.67,0,0,0,2,4,7.91,7.91,0,0,1,1.3,3.6,3.81,3.81,0,0,1-1.6,3.3,5.1,5.1,0,0,1-2.3,1.2,3.87,3.87,0,0,1-2.6,0,10.22,10.22,0,0,1-4.4-3.4,8.34,8.34,0,0,1-1.1-1.7,6.48,6.48,0,0,1-.7-2.3,5.72,5.72,0,0,1,1.9-4.7l2.2,2.6a2.63,2.63,0,0,0-.9,2.4,4.78,4.78,0,0,0,1.3,2.4c1.5,1.7,2.8,2.1,3.9,1.1a2,2,0,0,0,.6-2.1,6.57,6.57,0,0,0-1-2.2,23.84,23.84,0,0,1-1.8-3.4,4.06,4.06,0,0,1,1.1-5,5,5,0,0,1,4.3-1.2,7.53,7.53,0,0,1,4,2.7c1.7,2.1,2.4,4,2,5.8a4.69,4.69,0,0,1-1.6,2.7C699.6,214.2,699.5,214.3,699.4,214.3Z" transform="translate(-95 -139.8)"/><path class="cls-2" d="M701.5,215.8l2,3-6.2,7.4,9.2-2.9,1.9,2.8-15.8,4a3.93,3.93,0,0,1-1.9.1c-.8-.2-1.9-1.2-3.1-3.1l2.2-1.5a1.38,1.38,0,0,0,.3.4c.9,1.3,1.8,1.6,2.8.9a1.21,1.21,0,0,0,.5-.5Z" transform="translate(-95 -139.8)"/><path class="cls-2" d="M701.5,232.2l1.5,2.9a2.25,2.25,0,0,0-.8,1.6,6.21,6.21,0,0,0,.5,1.8,2.42,2.42,0,0,0,.8,1.1,1.21,1.21,0,0,0,1.3.1,1,1,0,0,0,.6-1.3l-.9-4.2a3.23,3.23,0,0,1,1.5-3.9,3.68,3.68,0,0,1,3.5-.3,5.91,5.91,0,0,1,2.6,2.6,6.52,6.52,0,0,1,1,3.9,3.81,3.81,0,0,1-2.1,3.3l-1.5-2.8a1.9,1.9,0,0,0,.8-.7,2,2,0,0,0,0-1.1,3.37,3.37,0,0,0-.4-1.2,2.72,2.72,0,0,0-.8-1,1.06,1.06,0,0,0-1.2-.1.9.9,0,0,0-.4,1.1l1.1,4.8a2.75,2.75,0,0,1-.2,2,2.94,2.94,0,0,1-1.4,1.5,4.68,4.68,0,0,1-2.6.5,3.81,3.81,0,0,1-2.4-1.1,9.21,9.21,0,0,1-1.9-2.6,10.53,10.53,0,0,1-.9-2.7C699.3,234.4,700,233,701.5,232.2Z" transform="translate(-95 -139.8)"/><path class="cls-2" d="M715.4,239.9l.6,1.5,3.2-1.4,1.3,3-3.2,1.4.7,1.7-2,.9-.7-1.7-6.6,2.9c-.7.3-.9.6-.8,1l.5,1.2-2.1.9a5.08,5.08,0,0,1-.9-1.3c-.9-1.9-.6-3.3.9-4.3l7.6-3.3-.6-1.5Z" transform="translate(-95 -139.8)"/><path class="cls-2" d="M715.9,261.4l-2.7-8a2.86,2.86,0,0,0-1.8,1,2.53,2.53,0,0,0-.4,2.5,3.53,3.53,0,0,0,.8,1.3,2.16,2.16,0,0,0,1.4.6l1,3.1a5,5,0,0,1-3.5-1.2,6.11,6.11,0,0,1-2.3-3,5.84,5.84,0,0,1-.1-3.7,4.72,4.72,0,0,1,2.1-2.9,6,6,0,0,1,1.4-.7,12.94,12.94,0,0,1,2.6-.8c3.5-.6,5.8.7,6.8,3.7a5.41,5.41,0,0,1-.8,5.4,7.65,7.65,0,0,1-3.6,2.4A4.65,4.65,0,0,1,715.9,261.4Zm-.6-8.7,1.6,4.8q2.4-.9,1.8-3a2.83,2.83,0,0,0-1.3-1.7A2.24,2.24,0,0,0,715.3,252.7Z" transform="translate(-95 -139.8)"/><path class="cls-2" d="M712.1,267.9l-.6-3.2,12.5-2.5.6,3.2-1.9.4a4.52,4.52,0,0,1,2.8,2.8,4.09,4.09,0,0,1-.2,2.5,9.27,9.27,0,0,1-1,1.5,6.21,6.21,0,0,1,1.7,1.2,3.34,3.34,0,0,1,.8,1.9,3.08,3.08,0,0,1,.1,1c.2,2.2-1,3.5-3.4,4l-8.7,1.7-.6-3.2,8.6-1.7c.8-.2,1.1-.8,1-1.9a2.36,2.36,0,0,0-.9-1.6,1.89,1.89,0,0,0-1.8-.3l-7.6,1.5-.6-3.2,8.6-1.7a1.82,1.82,0,0,0,1-2.1,2,2,0,0,0-.9-1.5,2.67,2.67,0,0,0-1.8-.3Z" transform="translate(-95 -139.8)"/><path class="cls-2" d="M546.9,429.6l3.6,1.4a7.94,7.94,0,0,1-1.7,2.5,6.57,6.57,0,0,1-2.6,1.6,9.56,9.56,0,0,1-6-.2,7.6,7.6,0,0,1-4.4-3.6,9.42,9.42,0,0,1-1-5.6,11.71,11.71,0,0,1,.9-3.3,12.58,12.58,0,0,1,1.7-3.3c2.7-3.6,6.1-4.6,10.1-3.1a8.91,8.91,0,0,1,4.3,3.2,6.65,6.65,0,0,1,.9,6.1l-3.5-1.3a3.62,3.62,0,0,0-.2-2.5,4.47,4.47,0,0,0-3.2-2.5,4.27,4.27,0,0,0-2.5.1,5.41,5.41,0,0,0-2.2,1.5,9.64,9.64,0,0,0-1.7,2.9,10,10,0,0,0-.9,4,4.39,4.39,0,0,0,1.6,3.6,10.54,10.54,0,0,0,1.1.7,9.36,9.36,0,0,0,1.6.4,3.49,3.49,0,0,0,2.9-.8C546.1,430.8,546.5,430.3,546.9,429.6Z" transform="translate(-95 -139.8)"/><path class="cls-2" d="M566.2,435.2l-9.3-2.1a3.68,3.68,0,0,0-.1,2.3,3,3,0,0,0,2.2,1.9,4.84,4.84,0,0,0,1.7,0,2.15,2.15,0,0,0,1.4-1l3.6.8a5.48,5.48,0,0,1-3.2,2.7,6.91,6.91,0,0,1-4.2.4,6.65,6.65,0,0,1-3.6-2.1,5.91,5.91,0,0,1-1.6-3.7,13.57,13.57,0,0,1,.1-1.8,11.14,11.14,0,0,1,.8-3c1.5-3.7,4.1-5.1,7.6-4.3a5.9,5.9,0,0,1,4.7,4,9,9,0,0,1,.2,4.9C566.4,434.5,566.3,434.8,566.2,435.2Zm-8.8-4.5L563,432c.4-1.9-.2-3.1-1.9-3.5a2.87,2.87,0,0,0-3.7,2.2Z" transform="translate(-95 -139.8)"/><path class="cls-2" d="M569.2,441.7l1.8-14.3,3.7.5-.3,2.8a5.41,5.41,0,0,1,1.8-1.9,4.16,4.16,0,0,1,2.5-.7c.2,0,.3.1.5.1l-.5,3.8a6.88,6.88,0,0,0-1.3-.2,3,3,0,0,0-3.5,2.4l-1,8Z" transform="translate(-95 -139.8)"/><path class="cls-2" d="M580.4,428.8l1.8.1.2-3.9,3.7.2-.2,3.9,2.1.1-.1,2.5-2.1-.1-.4,8.1c0,.8.2,1.3.6,1.3l1.5.1-.1,2.5a5.66,5.66,0,0,1-1.8.3q-3.6,0-3.9-3l.4-9.3-1.8-.1Z" transform="translate(-95 -139.8)"/><path class="cls-2" d="M591.1,427.2l-.1-3.3,3.7-.1.1,3.3Zm.3,16-.3-14.4,3.7-.1.3,14.4Z" transform="translate(-95 -139.8)"/><path class="cls-2" d="M597.8,431.4l-.2-2.5,2-.2-.2-1.7c-.2-2.4.8-3.7,3.2-3.9l2.3-.2.2,2.7-1.3.1c-.5,0-.8.4-.7,1l.1,1.5,2.2-.2.2,2.5-2.2.2,1,11.6-3.7.3-1-11.6Z" transform="translate(-95 -139.8)"/><path class="cls-2" d="M608,426l-.5-3.3,3.6-.6.5,3.3Zm2.5,15.8-2.3-14.2,3.6-.6,2.3,14.2Z" transform="translate(-95 -139.8)"/><path class="cls-2" d="M629.7,431.5l-9.3,2.3a3,3,0,0,0,1,2.1,3.19,3.19,0,0,0,2.8.7,3.68,3.68,0,0,0,1.5-.8,2.24,2.24,0,0,0,.8-1.5l3.5-.9a6,6,0,0,1-1.6,3.9,7.43,7.43,0,0,1-3.6,2.3,6.38,6.38,0,0,1-4.1-.2,6.09,6.09,0,0,1-3.1-2.6c-.2-.4-.4-.9-.7-1.6a15.94,15.94,0,0,1-.6-3c-.3-4,1.3-6.4,4.8-7.3a6.09,6.09,0,0,1,6,1.4,9.67,9.67,0,0,1,2.4,4.2A8.66,8.66,0,0,1,629.7,431.5Zm-9.8-.1,5.5-1.4c-.5-1.9-1.6-2.6-3.3-2.3a2.87,2.87,0,0,0-2,1.3A2.84,2.84,0,0,0,619.9,431.4Z" transform="translate(-95 -139.8)"/><path class="cls-2" d="M640.6,413.3l7,18.1-3.4,1.3-.5-1.4a4.6,4.6,0,0,1-2.7,3.2,5.49,5.49,0,0,1-3.2.5,5.6,5.6,0,0,1-2.8-1.7,14.37,14.37,0,0,1-2.5-3.3,10.13,10.13,0,0,1-.8-4.7,5.39,5.39,0,0,1,3.4-4.8,3.86,3.86,0,0,1,4.6.6l-2.5-6.5Zm-3.5,9.8a2.88,2.88,0,0,0-1.8,2.4,6.5,6.5,0,0,0,2,5.3,2.67,2.67,0,0,0,2.9.6,2.63,2.63,0,0,0,1.7-2.4,6.5,6.5,0,0,0-2-5.3A2.48,2.48,0,0,0,637.1,423.1Z" transform="translate(-95 -139.8)"/></svg>