<svg id="Layer_1" data-name="Layer 1" xmlns="http://www.w3.org/2000/svg" viewBox="0 0 477.04 171.91"><defs><style>.cls-1{fill:#034694;}.cls-2{fill:#f7941d;}.cls-3{fill:none;stroke:#f7941d;stroke-linecap:round;stroke-linejoin:round;stroke-width:1.11px;}</style></defs><path class="cls-1" d="M514.12,438.35H707.68L594.16,280.18c-14.84-17.31-37.42-17.83-53,0L425.39,438.35h61.9l76.19-107a3.73,3.73,0,0,1,6.08,0l45.79,65.32H542.69Z" transform="translate(-425.39 -266.45)"/><path class="cls-2" d="M838.51,267H615l29.82,43.4H831.4a20.93,20.93,0,1,1,0,41.86H673.6l55.84,81.24V393.73H838.51a63.37,63.37,0,0,0,0-126.73Z" transform="translate(-425.39 -266.45)"/><path class="cls-3" d="M838.51,267H615l29.82,43.4H831.4a20.93,20.93,0,1,1,0,41.86H673.6l55.84,81.24V393.73H838.51a63.37,63.37,0,0,0,0-126.73Z" transform="translate(-425.39 -266.45)"/></svg>